<svg width="53" height="53" viewBox="0 0 53 53" fill="none" xmlns="http://www.w3.org/2000/svg">
<path d="M26.2741 4.57932C38.256 4.57932 47.9688 14.292 47.9688 26.274V34.4399C47.9687 35.2459 47.7442 36.0359 47.3204 36.7214C46.8966 37.4069 46.2903 37.9608 45.5693 38.3211L39.2909 41.4603V43.6298C39.291 45.2899 38.6567 46.8873 37.5178 48.0951C36.3789 49.303 34.8215 50.03 33.1643 50.1274L32.674 50.1382C32.7217 49.902 32.7536 49.6628 32.7695 49.4223L32.7825 49.0535V47.9687C32.7828 46.8741 32.3694 45.8197 31.6251 45.0171C30.8807 44.2144 29.8605 43.7227 28.7689 43.6406L28.4435 43.6298H24.1046C23.0099 43.6295 21.9556 44.0429 21.1529 44.7872C20.3503 45.5315 19.8586 46.5517 19.7765 47.6433L19.7656 47.9687V49.0535C19.7656 49.4245 19.8025 49.7889 19.8741 50.1382H19.7656C18.0395 50.1382 16.3841 49.4525 15.1635 48.2319C13.9429 47.0114 13.2572 45.3559 13.2572 43.6298V41.4603L6.97878 38.3211C6.25751 37.9607 5.65093 37.4064 5.2271 36.7205C4.80328 36.0345 4.57897 35.2441 4.57935 34.4377V26.274C4.57935 14.292 14.2921 4.57932 26.2741 4.57932ZM26.2741 8.91826C21.765 8.91831 17.4329 10.6732 14.1951 13.8114C10.9573 16.9496 9.06788 21.2248 8.92697 25.7317L8.91829 26.274V34.4399L17.5962 38.7789V42.2305L17.7589 42.0483C19.2955 40.3988 21.4148 39.4135 23.6664 39.3017L24.1046 39.2909L28.6019 39.293L29.0857 39.3147C31.253 39.4753 33.186 40.4211 34.6178 41.8682L34.9519 42.2305V38.7789L43.6298 34.4399V26.274C43.6298 21.671 41.8013 17.2565 38.5464 14.0016C35.2916 10.7468 30.8771 8.91826 26.2741 8.91826V8.91826ZM17.5962 24.1046C18.7469 24.1046 19.8506 24.5617 20.6643 25.3754C21.478 26.1891 21.9351 27.2927 21.9351 28.4435C21.9351 29.5943 21.478 30.6979 20.6643 31.5116C19.8506 32.3253 18.7469 32.7824 17.5962 32.7824C16.4454 32.7824 15.3418 32.3253 14.5281 31.5116C13.7144 30.6979 13.2572 29.5943 13.2572 28.4435C13.2572 27.2927 13.7144 26.1891 14.5281 25.3754C15.3418 24.5617 16.4454 24.1046 17.5962 24.1046V24.1046ZM34.9519 24.1046C36.1027 24.1046 37.2063 24.5617 38.02 25.3754C38.8337 26.1891 39.2909 27.2927 39.2909 28.4435C39.2909 29.5943 38.8337 30.6979 38.02 31.5116C37.2063 32.3253 36.1027 32.7824 34.9519 32.7824C33.8012 32.7824 32.6976 32.3253 31.8838 31.5116C31.0701 30.6979 30.613 29.5943 30.613 28.4435C30.613 27.2927 31.0701 26.1891 31.8838 25.3754C32.6976 24.5617 33.8012 24.1046 34.9519 24.1046V24.1046Z" fill="white"/>
</svg>
