<svg width="44" height="47" viewBox="0 0 44 47" fill="none" xmlns="http://www.w3.org/2000/svg">
<path d="M22.2741 0.579315C34.256 0.579315 43.9688 10.292 43.9688 22.274V30.4399C43.9687 31.2459 43.7442 32.0359 43.3204 32.7214C42.8966 33.4069 42.2903 33.9608 41.5693 34.3211L35.2909 37.4603V39.6298C35.291 41.2899 34.6567 42.8873 33.5178 44.0951C32.3789 45.303 30.8215 46.03 29.1643 46.1274L28.674 46.1382C28.7217 45.902 28.7536 45.6628 28.7695 45.4223L28.7825 45.0535V43.9687C28.7828 42.8741 28.3694 41.8197 27.6251 41.0171C26.8807 40.2144 25.8605 39.7227 24.7689 39.6406L24.4435 39.6298H20.1046C19.0099 39.6295 17.9556 40.0429 17.1529 40.7872C16.3503 41.5315 15.8586 42.5517 15.7765 43.6433L15.7656 43.9687V45.0535C15.7656 45.4245 15.8025 45.7889 15.8741 46.1382H15.7656C14.0395 46.1382 12.3841 45.4525 11.1635 44.2319C9.94294 43.0114 9.25723 41.3559 9.25723 39.6298V37.4603L2.97878 34.3211C2.25751 33.9607 1.65093 33.4064 1.2271 32.7205C0.803278 32.0345 0.57897 31.2441 0.579346 30.4377V22.274C0.579346 10.292 10.2921 0.579315 22.2741 0.579315ZM22.2741 4.91826C17.765 4.91831 13.4329 6.67322 10.1951 9.81143C6.95726 12.9496 5.06788 17.2248 4.92697 21.7317L4.91829 22.274V30.4399L13.5962 34.7789V38.2305L13.7589 38.0483C15.2955 36.3988 17.4148 35.4135 19.6664 35.3017L20.1046 35.2909L24.6019 35.293L25.0857 35.3147C27.253 35.4753 29.186 36.4212 30.6178 37.8682L30.9519 38.2305V34.7789L39.6298 30.4399V22.274C39.6298 17.671 37.8013 13.2565 34.5464 10.0016C31.2916 6.74681 26.8771 4.91826 22.2741 4.91826ZM13.5962 20.1046C14.7469 20.1046 15.8506 20.5617 16.6643 21.3754C17.478 22.1891 17.9351 23.2927 17.9351 24.4435C17.9351 25.5943 17.478 26.6979 16.6643 27.5116C15.8506 28.3253 14.7469 28.7824 13.5962 28.7824C12.4454 28.7824 11.3418 28.3253 10.5281 27.5116C9.71437 26.6979 9.25723 25.5943 9.25723 24.4435C9.25723 23.2927 9.71437 22.1891 10.5281 21.3754C11.3418 20.5617 12.4454 20.1046 13.5962 20.1046ZM30.9519 20.1046C32.1027 20.1046 33.2063 20.5617 34.02 21.3754C34.8337 22.1891 35.2909 23.2927 35.2909 24.4435C35.2909 25.5943 34.8337 26.6979 34.02 27.5116C33.2063 28.3253 32.1027 28.7824 30.9519 28.7824C29.8012 28.7824 28.6976 28.3253 27.8838 27.5116C27.0701 26.6979 26.613 25.5943 26.613 24.4435C26.613 23.2927 27.0701 22.1891 27.8838 21.3754C28.6976 20.5617 29.8012 20.1046 30.9519 20.1046Z" fill="white"/>
</svg>
